<svg width="64" height="64" xmlns="http://www.w3.org/2000/svg"><circle cx="32" cy="32" r="31" fill="#f2720c"/><path d="M39 30c-1 0-3 2-7 2s-6-2-7-2c-1.1 0-2 .9-2 2 0 1 .6 1.5 1 1.7 1.2.7 5 2.3 5 2.3l-4.3 5.4s-.8.9-.8 1.6c0 1.1.9 2 2 2 1 0 1.5-.7 1.5-.7L32 39l4.5 5.3s.5.7 1.5.7c1.1 0 2-.9 2-2 0-.6-.8-1.6-.8-1.6L35 36s3.8-1.6 5-2.3c.4-.3 1-.7 1-1.7 0-1.1-.9-2-2-2zm-7-15c-3.9 0-7 3.1-7 7s3.1 7 7 7 7-3.1 7-7-3.1-7-7-7zm0 10.5c-1.9 0-3.5-1.6-3.5-3.5s1.6-3.5 3.5-3.5 3.5 1.6 3.5 3.5-1.6.5-.5.5z" fill="#fff"/></svg>