<svg width="24" height="24" fill="none" xmlns="http://www.w3.org/2000/svg"><path fill-rule="evenodd" clip-rule="evenodd" d="M11.215 17.986l-2.599 2.588c-.932.93-2.998.531-4.397-.863-.732-.73-1.199-1.659-1.332-2.522-.133-.796.067-1.46.466-1.858l4.93-4.912c.467-.398 1.133-.597 1.866-.464.866.133 1.799.597 2.532 1.327.333.332.666.73.866 1.129.266.464.866.663 1.332.398.466-.266.666-.863.4-1.328a8.645 8.645 0 00-1.2-1.526c-1.065-1.062-2.331-1.726-3.664-1.925-1.399-.199-2.731.133-3.597 1.062l-4.93 4.912c-.867.862-1.266 2.19-1.066 3.584.2 1.327.866 2.588 1.932 3.65 1.265 1.261 2.931 1.991 4.397 1.991 1.066 0 2.065-.332 2.798-1.128l2.598-2.589a.96.96 0 000-1.393c-.333-.531-.933-.531-1.332-.133zM23.207 6.437c-.133-1.394-.8-2.721-1.866-3.783C20.276 1.592 18.944.928 17.544.796c-1.466-.133-2.798.265-3.73 1.26l-3.199 3.186a.96.96 0 000 1.394c.4.399 1 .399 1.4 0l3.197-3.186c.533-.53 1.266-.73 2.132-.663.933.066 1.866.53 2.598 1.26.733.73 1.2 1.66 1.266 2.59.067.862-.133 1.592-.666 2.123l-5.463 5.443c-.533.53-1.266.73-2.132.663-.933-.066-1.865-.53-2.598-1.26-.4-.399-.733-.864-.933-1.328-.2-.531-.8-.73-1.332-.465-.533.2-.733.797-.467 1.328.333.73.8 1.327 1.333 1.925 1.066 1.061 2.398 1.725 3.797 1.858h.533c1.266 0 2.332-.465 3.198-1.261l5.463-5.443c.933-.995 1.4-2.323 1.266-3.783z" fill="#0065D9"/></svg>