<svg width="48" height="48" fill="none" xmlns="http://www.w3.org/2000/svg"><g clip-path="url(#clip0_3664_78855)"><path fill-rule="evenodd" clip-rule="evenodd" d="M24 48c13.255 0 24-10.745 24-24S37.255 0 24 0 0 10.745 0 24s10.745 24 24 24zm.223-30.67c-2.398.99-7.192 3.036-14.382 6.14-1.167.461-1.779.911-1.835 1.351-.094.744.846 1.037 2.126 1.436.174.054.355.11.54.17 1.259.406 2.952.88 3.833.9.799.016 1.69-.31 2.675-.98 6.717-4.494 10.184-6.766 10.402-6.815.154-.034.366-.078.51.05.145.126.13.367.115.431-.093.394-3.782 3.793-5.691 5.553a67.39 67.39 0 00-1.104 1.026c-.193.2-.39.388-.58.569-1.17 1.117-2.047 1.955.049 3.324 1.007.658 1.813 1.202 2.617 1.745a183.17 183.17 0 002.886 1.92c.29.187.565.382.833.572 1.022.722 1.94 1.37 3.074 1.267.66-.06 1.34-.674 1.686-2.506.817-4.33 2.423-13.71 2.794-17.574a4.278 4.278 0 00-.041-.963c-.033-.19-.102-.461-.351-.662-.296-.237-.752-.287-.956-.284-.928.016-2.35.507-9.2 3.33z" fill="#3CA2D9"/></g><defs><clipPath id="clip0_3664_78855"><path fill="#fff" d="M0 0h48v48H0z"/></clipPath></defs></svg>